<svg xmlns="http://www.w3.org/2000/svg" viewBox="0 0 240 240" role="img" aria-labelledby="mskLogoTitle">
  <title id="mskLogoTitle">MSK Marketing Company logo</title>
  <defs>
    <linearGradient id="mskBg" x1="0%" y1="0%" x2="100%" y2="100%">
      <stop offset="0%" stop-color="#0d1d67" />
      <stop offset="100%" stop-color="#12298c" />
    </linearGradient>
    <linearGradient id="mskArrow" x1="0%" y1="100%" x2="100%" y2="0%">
      <stop offset="0%" stop-color="#4f9cff" />
      <stop offset="100%" stop-color="#ffffff" />
    </linearGradient>
  </defs>
  <circle cx="120" cy="120" r="114" fill="#ffffff" stroke="#d8dbe8" stroke-width="6" />
  <ellipse cx="120" cy="121" rx="86" ry="65" fill="url(#mskBg)" />
  <g transform="translate(52 86)">
    <circle cx="10" cy="30" r="5.5" fill="none" stroke="#ffffff" stroke-width="3" />
    <circle cx="35" cy="18" r="5.5" fill="none" stroke="#ffffff" stroke-width="3" />
    <circle cx="61" cy="27" r="5.5" fill="none" stroke="#ffffff" stroke-width="3" />
    <path d="M10 30 35 18 61 27 88 -3" fill="none" stroke="#ffffff" stroke-width="4" stroke-linecap="round" stroke-linejoin="round" />
    <path d="M80 -1 89 -10 93 -1" fill="none" stroke="#ffffff" stroke-width="4" stroke-linecap="round" stroke-linejoin="round" />
    <path d="M47 50V17l15 5v28z" fill="#ffb300" />
    <path d="M63 50V10l14 8v32z" fill="#ff8c1a" />
    <path d="M79 50V-2l18 9v43z" fill="url(#mskArrow)" />
  </g>
  <text x="118" y="128" fill="#ffffff" font-size="55" font-family="Arial, Helvetica, sans-serif" font-weight="800" letter-spacing="-1">
    MSK
  </text>
  <text x="120" y="162" fill="#ffffff" font-size="19" font-family="Georgia, 'Times New Roman', serif" text-anchor="middle">
    Marketing Company
  </text>
</svg>
